<svg xmlns="http://www.w3.org/2000/svg" xmlns:xlink="http://www.w3.org/1999/xlink" width="308" zoomAndPan="magnify" viewBox="0 0 230.87999 56.999997" height="76" preserveAspectRatio="xMidYMid meet" version="1.2"><defs><clipPath id="21189c12c2"><path d="M 0 0.015625 L 230.761719 0.015625 L 230.761719 56.984375 L 0 56.984375 Z M 0 0.015625 "/></clipPath><clipPath id="eb4e32f905"><path d="M 44 12 L 79 12 L 79 44 L 44 44 Z M 44 12 "/></clipPath><clipPath id="6bbecd4d17"><path d="M 52.152344 5.710938 L 80.429688 13.140625 L 70.714844 50.117188 L 42.4375 42.6875 Z M 52.152344 5.710938 "/></clipPath><clipPath id="5e92a6f010"><path d="M 52.152344 5.710938 L 80.429688 13.140625 L 70.714844 50.117188 L 42.4375 42.6875 Z M 52.152344 5.710938 "/></clipPath></defs><g id="029ac5a082"><g clip-rule="nonzero" clip-path="url(#21189c12c2)"><path style=" stroke:none;fill-rule:nonzero;fill:#ffffff;fill-opacity:1;" d="M 0 0.015625 L 230.878906 0.015625 L 230.878906 56.984375 L 0 56.984375 Z M 0 0.015625 "/><path style=" stroke:none;fill-rule:nonzero;fill:#ffffff;fill-opacity:1;" d="M 0 0.015625 L 230.878906 0.015625 L 230.878906 56.984375 L 0 56.984375 Z M 0 0.015625 "/></g><g clip-rule="nonzero" clip-path="url(#eb4e32f905)"><g clip-rule="nonzero" clip-path="url(#6bbecd4d17)"><g clip-rule="nonzero" clip-path="url(#5e92a6f010)"><path style=" stroke:none;fill-rule:nonzero;fill:#ff5f07;fill-opacity:1;" d="M 64.160156 33.558594 L 50.589844 40.402344 L 65.730469 33.910156 L 62.261719 30.476562 Z M 58.539062 22.222656 L 72.109375 15.382812 L 56.964844 21.871094 L 60.433594 25.304688 Z M 59.886719 27.898438 L 53.332031 21.40625 L 67.128906 15.976562 L 51.289062 17.996094 L 50.390625 26.601562 L 52.238281 28.429688 L 53.742188 29.917969 L 52.914062 28.359375 C 53.398438 28.386719 53.878906 28.585938 54.253906 28.957031 C 55.070312 29.765625 55.078125 31.078125 54.269531 31.894531 C 53.460938 32.707031 52.148438 32.714844 51.332031 31.90625 C 50.785156 31.367188 50.601562 30.59375 50.789062 29.898438 L 48.238281 27.375 L 49.410156 16.160156 L 78.03125 12.511719 C 72.957031 17.636719 67.882812 22.761719 62.808594 27.882812 L 69.363281 34.375 L 55.566406 39.804688 L 71.40625 37.785156 L 72.304688 29.183594 L 70.457031 27.351562 L 68.957031 25.867188 L 69.785156 27.421875 C 69.296875 27.394531 68.816406 27.195312 68.441406 26.824219 C 67.625 26.019531 67.621094 24.703125 68.425781 23.890625 C 69.234375 23.074219 70.546875 23.066406 71.363281 23.875 C 71.910156 24.417969 72.09375 25.1875 71.910156 25.886719 L 74.457031 28.40625 L 73.285156 39.621094 L 44.664062 43.269531 C 49.738281 38.148438 54.8125 33.023438 59.886719 27.898438 Z M 59.886719 27.898438 "/></g></g></g><g style="fill:#040404;fill-opacity:1;"><g transform="translate(14.715388, 41.878434)"><path style="stroke:none" d="M 14.765625 -12.90625 L 9.875 -7.890625 L 9.875 0 L 4.140625 0 L 4.140625 -30.84375 L 9.875 -30.84375 L 9.875 -15.03125 L 25.109375 -30.84375 L 31.546875 -30.84375 L 18.59375 -17.046875 L 32.34375 0 L 25.640625 0 Z M 14.765625 -12.90625 "/></g></g><g style="fill:#040404;fill-opacity:1;"><g transform="translate(46.858063, 41.878434)"><path style="stroke:none" d=""/></g></g><g style="fill:#040404;fill-opacity:1;"><g transform="translate(59.021464, 41.878434)"><path style="stroke:none" d=""/></g></g><g style="fill:#040404;fill-opacity:1;"><g transform="translate(71.204848, 41.878434)"><path style="stroke:none" d="M 32.46875 0 L 32.4375 -20.4375 L 22.296875 -3.53125 L 19.734375 -3.53125 L 9.609375 -20.1875 L 9.609375 0 L 4.140625 0 L 4.140625 -30.84375 L 8.859375 -30.84375 L 21.109375 -10.40625 L 33.140625 -30.84375 L 37.84375 -30.84375 L 37.890625 0 Z M 32.46875 0 "/></g></g><g style="fill:#040404;fill-opacity:1;"><g transform="translate(113.292008, 41.878434)"><path style="stroke:none" d="M 24.140625 -7.140625 L 8.71875 -7.140625 L 5.6875 0 L -0.21875 0 L 13.65625 -30.84375 L 19.296875 -30.84375 L 33.21875 0 L 27.234375 0 Z M 22.25 -11.625 L 16.4375 -25.109375 L 10.65625 -11.625 Z M 22.25 -11.625 "/></g></g><g style="fill:#040404;fill-opacity:1;"><g transform="translate(146.300688, 41.878434)"><path style="stroke:none" d="M 4.140625 -30.84375 L 9.875 -30.84375 L 9.875 -4.84375 L 26 -4.84375 L 26 0 L 4.140625 0 Z M 4.140625 -30.84375 "/></g></g><g style="fill:#040404;fill-opacity:1;"><g transform="translate(172.698803, 41.878434)"><path style="stroke:none" d="M 17.40625 0.4375 C 13.144531 0.4375 9.820312 -0.753906 7.4375 -3.140625 C 5.0625 -5.535156 3.875 -8.96875 3.875 -13.4375 L 3.875 -30.84375 L 9.609375 -30.84375 L 9.609375 -13.65625 C 9.609375 -7.601562 12.222656 -4.578125 17.453125 -4.578125 C 22.648438 -4.578125 25.25 -7.601562 25.25 -13.65625 L 25.25 -30.84375 L 30.890625 -30.84375 L 30.890625 -13.4375 C 30.890625 -8.96875 29.707031 -5.535156 27.34375 -3.140625 C 24.976562 -0.753906 21.664062 0.4375 17.40625 0.4375 Z M 17.40625 0.4375 "/></g></g></g></svg>