<?xml version="1.0" encoding="iso-8859-1"?>
<!-- Uploaded to: SVG Repo, www.svgrepo.com, Generator: SVG Repo Mixer Tools -->
<!DOCTYPE svg PUBLIC "-//W3C//DTD SVG 1.1//EN" "http://www.w3.org/Graphics/SVG/1.1/DTD/svg11.dtd">
<svg fill="#000000" version="1.1" id="Capa_1" xmlns="http://www.w3.org/2000/svg" xmlns:xlink="http://www.w3.org/1999/xlink" 
	 width="800px" height="800px" viewBox="0 0 416.337 416.336"
	 xml:space="preserve">
<g>
	<g>
		<path d="M34.903,258.162c-4.506,0-8.934,0.885-13.063,2.552V111.938c0-8.18,6.655-14.835,14.835-14.835h56.038
			c2.415,0,4.372-1.957,4.372-4.371c0-2.415-1.957-4.372-4.372-4.372H36.676c-13,0-23.578,10.577-23.578,23.578v155.754
			c0,2.414,1.957,4.371,4.372,4.371c0.942,0,2.065-0.232,3.759-1.308c4.065-2.581,8.834-3.851,13.676-3.851
			c14.429,0,26.167,11.736,26.167,26.162c0,14.429-11.738,26.167-26.167,26.167c-14.426,0-26.162-11.738-26.162-26.167
			c0-2.415-1.958-4.371-4.372-4.371c-2.415,0-4.372,1.956-4.372,4.371c0,19.25,15.659,34.91,34.905,34.91
			c19.25,0,34.91-15.66,34.91-34.91C69.813,273.821,54.153,258.162,34.903,258.162z"/>
		<path d="M171.533,258.162c-6.459,0-12.771,1.778-18.253,5.141c-2.058,1.265-2.703,3.956-1.441,6.012
			c1.261,2.061,3.954,2.705,6.012,1.441c4.107-2.52,8.837-3.851,13.683-3.851c14.428,0,26.166,11.736,26.166,26.162
			c0,14.428-11.738,26.167-26.166,26.167c-14.426,0-26.164-11.739-26.164-26.167c0-2.415-1.957-4.371-4.371-4.371H88.275
			c-2.415,0-4.371,1.956-4.371,4.371s1.957,4.371,4.371,4.371h48.656c2.161,17.188,16.839,30.539,34.603,30.539
			c19.248,0,34.908-15.66,34.908-34.91C206.441,273.821,190.78,258.162,171.533,258.162z"/>
		<path d="M411.964,290.804H250.586c2.464-3.419,3.933-7.6,3.933-12.126v-55.876c0-9.862-3.791-24.311-8.631-32.896l-42.205-74.893
			c-5.225-9.278-17.657-16.545-28.306-16.545h-34.036c-11.473,0-20.805,9.332-20.805,20.803v70.667
			c0,11.471,9.332,20.805,20.805,20.805h64.435c2.417,0,4.372-1.957,4.372-4.372c0-2.415-1.955-4.372-4.372-4.372h-64.435
			c-6.65,0-12.062-5.41-12.062-12.062v-70.667c0-6.65,5.412-12.06,12.062-12.06h34.036c7.524,0,16.997,5.538,20.689,12.093
			l42.205,74.895c4.069,7.216,7.505,20.315,7.505,28.603v55.876c0,6.651-5.409,12.062-12.058,12.062h-14.034
			c-2.415,0-4.371,1.956-4.371,4.371s1.956,4.371,4.371,4.371l192.282,0.063c2.416,0,4.371-1.957,4.371-4.371
			C416.335,292.761,414.38,290.804,411.964,290.804z"/>
		<path d="M282.866,272.864h81.401c2.417,0,4.372-1.957,4.372-4.371v-34.227c0-2.415-1.955-4.372-4.372-4.372h-2.152l9.655-11.587
			l9.946,11.587h-2.541c-2.414,0-4.371,1.957-4.371,4.372v34.227c0,2.414,1.957,4.371,4.371,4.371h24.832
			c5.189,0,9.412-4.223,9.412-9.412v-102.51c0-2.415-1.956-4.372-4.371-4.372s-4.372,1.957-4.372,4.372v102.51
			c0,0.356-0.312,0.669-0.669,0.669h-20.46v-25.483h6.466c1.971,0,3.704-1.039,4.523-2.708c0.82-1.672,0.583-3.68-0.624-5.237
			l-18.131-21.135c-1.013-1.242-2.479-1.95-4.05-1.95h-0.035c-1.586,0.011-3.06,0.739-4.065,2.008l-17.449,20.942l-0.138,0.175
			c-1.175,1.565-1.39,3.567-0.562,5.223c0.829,1.654,2.559,2.683,4.515,2.683h5.898v25.483h-77.03c-2.203,0-3.995-1.792-3.995-3.997
			v-96.229c0-2.203,1.792-3.997,3.995-3.997h101.892c2.414,0,4.371-1.957,4.371-4.372c0-2.415-1.957-4.371-4.371-4.371H282.866
			c-7.023,0-12.738,5.716-12.738,12.74v96.229C270.128,267.148,275.843,272.864,282.866,272.864z"/>
	</g>
</g>
</svg>